<svg width="563" height="329" viewBox="0 0 563 329" fill="none" xmlns="http://www.w3.org/2000/svg">
<g clip-path="url(#clip0_272_180)">
<circle cx="115" cy="173" r="113.5" fill="#F6F8FA" stroke="#D3D4D6" stroke-width="3"/>
<circle cx="237" cy="115" r="113.5" fill="#F6F8FA" stroke="#D3D4D6" stroke-width="3"/>
<circle cx="448" cy="214" r="113.5" fill="#F6F8FA" stroke="#D3D4D6" stroke-width="3"/>
<circle cx="169" cy="214" r="113.5" fill="#F6F8FA" stroke="#D3D4D6" stroke-width="3"/>
<circle cx="289" cy="214" r="113.5" fill="#F6F8FA" stroke="#D3D4D6" stroke-width="3"/>
<circle cx="361" cy="133" r="113.5" fill="#F6F8FA" stroke="#D3D4D6" stroke-width="3"/>
<ellipse cx="88.5" cy="241" rx="41.5" ry="39" fill="#F6F8FA"/>
<ellipse cx="126.5" cy="101" rx="41.5" ry="39" fill="#F6F8FA"/>
<ellipse cx="86" cy="176.5" rx="57" ry="64.5" fill="#F6F8FA"/>
<ellipse cx="215.5" cy="269" rx="27.5" ry="45" fill="#F6F8FA"/>
<ellipse cx="422.5" cy="247.5" rx="74.5" ry="66.5" fill="#F6F8FA"/>
<ellipse cx="463" cy="154" rx="46" ry="51" fill="#F6F8FA"/>
<ellipse cx="274.5" cy="169" rx="159.5" ry="142" fill="#F6F8FA"/>
<path d="M207.459 131.18C207.459 134.96 206.529 138.26 204.669 141.08C202.809 143.9 200.109 146.09 196.569 147.65C193.089 149.15 188.829 149.9 183.789 149.9C181.569 149.9 179.379 149.75 177.219 149.45C175.119 149.15 173.079 148.73 171.099 148.19C169.179 147.59 167.349 146.87 165.609 146.03V133.34C168.669 134.66 171.819 135.89 175.059 137.03C178.359 138.11 181.629 138.65 184.869 138.65C187.089 138.65 188.859 138.35 190.179 137.75C191.559 137.15 192.549 136.34 193.149 135.32C193.809 134.3 194.139 133.13 194.139 131.81C194.139 130.19 193.569 128.81 192.429 127.67C191.349 126.53 189.879 125.48 188.019 124.52C186.159 123.5 184.029 122.42 181.629 121.28C180.129 120.56 178.509 119.72 176.769 118.76C175.029 117.74 173.349 116.51 171.729 115.07C170.169 113.57 168.879 111.77 167.859 109.67C166.839 107.57 166.329 105.05 166.329 102.11C166.329 98.27 167.199 95 168.939 92.3C170.739 89.54 173.259 87.44 176.499 86C179.799 84.56 183.669 83.84 188.109 83.84C191.469 83.84 194.649 84.23 197.649 85.01C200.709 85.79 203.889 86.9 207.189 88.34L202.779 98.96C199.839 97.76 197.199 96.83 194.859 96.17C192.519 95.51 190.119 95.18 187.659 95.18C185.979 95.18 184.539 95.45 183.339 95.99C182.139 96.53 181.209 97.28 180.549 98.24C179.949 99.2 179.649 100.34 179.649 101.66C179.649 103.16 180.099 104.45 180.999 105.53C181.899 106.55 183.249 107.54 185.049 108.5C186.849 109.46 189.099 110.6 191.799 111.92C195.099 113.48 197.889 115.1 200.169 116.78C202.509 118.46 204.309 120.44 205.569 122.72C206.829 125 207.459 127.82 207.459 131.18ZM238.219 98.87C244.819 98.87 249.859 100.31 253.339 103.19C256.879 106.01 258.649 110.36 258.649 116.24V149H249.289L246.679 142.34H246.319C244.939 144.08 243.499 145.52 241.999 146.66C240.559 147.8 238.879 148.61 236.959 149.09C235.099 149.63 232.789 149.9 230.029 149.9C227.149 149.9 224.539 149.36 222.199 148.28C219.919 147.14 218.119 145.43 216.799 143.15C215.479 140.81 214.819 137.87 214.819 134.33C214.819 129.11 216.649 125.27 220.309 122.81C223.969 120.29 229.459 118.91 236.779 118.67L245.329 118.4V116.24C245.329 113.66 244.639 111.77 243.259 110.57C241.939 109.37 240.079 108.77 237.679 108.77C235.279 108.77 232.939 109.13 230.659 109.85C228.379 110.51 226.099 111.35 223.819 112.37L219.409 103.28C222.049 101.9 224.959 100.82 228.139 100.04C231.379 99.26 234.739 98.87 238.219 98.87ZM240.109 126.41C235.789 126.53 232.789 127.31 231.109 128.75C229.429 130.19 228.589 132.08 228.589 134.42C228.589 136.46 229.189 137.93 230.389 138.83C231.589 139.67 233.149 140.09 235.069 140.09C237.949 140.09 240.379 139.25 242.359 137.57C244.339 135.83 245.329 133.4 245.329 130.28V126.23L240.109 126.41ZM288.305 98.96C291.305 98.96 294.005 99.56 296.405 100.76C298.805 101.96 300.845 103.76 302.525 106.16H302.885L303.965 99.86H315.305V149.09C315.305 153.77 314.375 157.7 312.515 160.88C310.715 164.06 307.985 166.46 304.325 168.08C300.665 169.76 296.135 170.6 290.735 170.6C287.255 170.6 284.015 170.39 281.015 169.97C278.075 169.55 275.195 168.8 272.375 167.72V157.01C274.415 157.85 276.455 158.54 278.495 159.08C280.595 159.68 282.725 160.1 284.885 160.34C287.105 160.64 289.325 160.79 291.545 160.79C295.025 160.79 297.605 159.86 299.285 158C301.025 156.14 301.895 153.35 301.895 149.63V148.64C301.895 147.62 301.925 146.57 301.985 145.49C302.105 144.41 302.195 143.45 302.255 142.61H301.895C300.215 145.19 298.205 147.05 295.865 148.19C293.525 149.33 290.885 149.9 287.945 149.9C282.125 149.9 277.565 147.68 274.265 143.24C271.025 138.74 269.405 132.5 269.405 124.52C269.405 119.12 270.155 114.53 271.655 110.75C273.155 106.91 275.315 104 278.135 102.02C281.015 99.98 284.405 98.96 288.305 98.96ZM292.535 109.85C290.435 109.85 288.665 110.42 287.225 111.56C285.845 112.64 284.795 114.29 284.075 116.51C283.415 118.67 283.085 121.4 283.085 124.7C283.085 129.62 283.865 133.31 285.425 135.77C286.985 138.17 289.415 139.37 292.715 139.37C294.455 139.37 295.955 139.16 297.215 138.74C298.475 138.26 299.495 137.51 300.275 136.49C301.115 135.41 301.745 134.03 302.165 132.35C302.585 130.67 302.795 128.63 302.795 126.23V124.61C302.795 121.07 302.435 118.22 301.715 116.06C300.995 113.9 299.885 112.34 298.385 111.38C296.885 110.36 294.935 109.85 292.535 109.85ZM349.579 98.96C354.139 98.96 358.039 99.83 361.279 101.57C364.579 103.31 367.129 105.83 368.929 109.13C370.729 112.43 371.629 116.48 371.629 121.28V127.76H339.949C340.069 131.54 341.179 134.51 343.279 136.67C345.439 138.83 348.409 139.91 352.189 139.91C355.369 139.91 358.249 139.61 360.829 139.01C363.409 138.35 366.079 137.36 368.839 136.04V146.39C366.439 147.59 363.889 148.46 361.189 149C358.549 149.6 355.339 149.9 351.559 149.9C346.639 149.9 342.289 149 338.509 147.2C334.729 145.34 331.759 142.55 329.599 138.83C327.439 135.11 326.359 130.43 326.359 124.79C326.359 119.03 327.319 114.26 329.239 110.48C331.219 106.64 333.949 103.76 337.429 101.84C340.909 99.92 344.959 98.96 349.579 98.96ZM349.669 108.5C347.089 108.5 344.929 109.34 343.189 111.02C341.509 112.7 340.519 115.31 340.219 118.85H359.029C359.029 116.87 358.669 115.1 357.949 113.54C357.289 111.98 356.269 110.75 354.889 109.85C353.509 108.95 351.769 108.5 349.669 108.5ZM198.445 219.78C198.445 224.76 197.815 229.29 196.555 233.37C195.355 237.39 193.495 240.87 190.975 243.81C188.515 246.75 185.335 249 181.435 250.56C177.595 252.12 173.065 252.9 167.845 252.9C162.625 252.9 158.065 252.12 154.165 250.56C150.325 248.94 147.145 246.69 144.625 243.81C142.165 240.87 140.305 237.36 139.045 233.28C137.845 229.2 137.245 224.67 137.245 219.69C137.245 213.03 138.325 207.24 140.485 202.32C142.705 197.4 146.065 193.59 150.565 190.89C155.125 188.13 160.915 186.75 167.935 186.75C174.895 186.75 180.625 188.13 185.125 190.89C189.625 193.59 192.955 197.43 195.115 202.41C197.335 207.33 198.445 213.12 198.445 219.78ZM151.555 219.78C151.555 224.28 152.125 228.15 153.265 231.39C154.405 234.63 156.175 237.12 158.575 238.86C160.975 240.6 164.065 241.47 167.845 241.47C171.745 241.47 174.865 240.6 177.205 238.86C179.605 237.12 181.345 234.63 182.425 231.39C183.565 228.15 184.135 224.28 184.135 219.78C184.135 213 182.875 207.69 180.355 203.85C177.835 200.01 173.695 198.09 167.935 198.09C164.095 198.09 160.975 198.96 158.575 200.7C156.175 202.44 154.405 204.93 153.265 208.17C152.125 211.41 151.555 215.28 151.555 219.78ZM238.576 201.96C243.856 201.96 248.086 203.4 251.266 206.28C254.446 209.1 256.036 213.66 256.036 219.96V252H242.626V223.29C242.626 219.75 241.996 217.11 240.736 215.37C239.476 213.57 237.466 212.67 234.706 212.67C230.626 212.67 227.836 214.08 226.336 216.9C224.836 219.66 224.086 223.65 224.086 228.87V252H210.676V202.86H220.936L222.736 209.16H223.456C224.536 207.48 225.856 206.13 227.416 205.11C228.976 204.03 230.716 203.25 232.636 202.77C234.556 202.23 236.536 201.96 238.576 201.96ZM283.237 252H269.827V183.6H283.237V252ZM310.659 202.86V252H297.249V202.86H310.659ZM303.999 183.6C305.979 183.6 307.689 184.08 309.129 185.04C310.569 185.94 311.289 187.65 311.289 190.17C311.289 192.63 310.569 194.34 309.129 195.3C307.689 196.26 305.979 196.74 303.999 196.74C301.959 196.74 300.219 196.26 298.779 195.3C297.399 194.34 296.709 192.63 296.709 190.17C296.709 187.65 297.399 185.94 298.779 185.04C300.219 184.08 301.959 183.6 303.999 183.6ZM352.57 201.96C357.85 201.96 362.08 203.4 365.26 206.28C368.44 209.1 370.03 213.66 370.03 219.96V252H356.62V223.29C356.62 219.75 355.99 217.11 354.73 215.37C353.47 213.57 351.46 212.67 348.7 212.67C344.62 212.67 341.83 214.08 340.33 216.9C338.83 219.66 338.08 223.65 338.08 228.87V252H324.67V202.86H334.93L336.73 209.16H337.45C338.53 207.48 339.85 206.13 341.41 205.11C342.97 204.03 344.71 203.25 346.63 202.77C348.55 202.23 350.53 201.96 352.57 201.96ZM404.071 201.96C408.631 201.96 412.531 202.83 415.771 204.57C419.071 206.31 421.621 208.83 423.421 212.13C425.221 215.43 426.121 219.48 426.121 224.28V230.76H394.441C394.561 234.54 395.671 237.51 397.771 239.67C399.931 241.83 402.901 242.91 406.681 242.91C409.861 242.91 412.741 242.61 415.321 242.01C417.901 241.35 420.571 240.36 423.331 239.04V249.39C420.931 250.59 418.381 251.46 415.681 252C413.041 252.6 409.831 252.9 406.051 252.9C401.131 252.9 396.781 252 393.001 250.2C389.221 248.34 386.251 245.55 384.091 241.83C381.931 238.11 380.851 233.43 380.851 227.79C380.851 222.03 381.811 217.26 383.731 213.48C385.711 209.64 388.441 206.76 391.921 204.84C395.401 202.92 399.451 201.96 404.071 201.96ZM404.161 211.5C401.581 211.5 399.421 212.34 397.681 214.02C396.001 215.7 395.011 218.31 394.711 221.85H413.521C413.521 219.87 413.161 218.1 412.441 216.54C411.781 214.98 410.761 213.75 409.381 212.85C408.001 211.95 406.261 211.5 404.161 211.5Z" fill="#007E45"/>
</g>
<defs>
<clipPath id="clip0_272_180">
<rect width="563" height="329" fill="white"/>
</clipPath>
</defs>
</svg>
